PathFileType	4	(X/Y/Z)	/Users/itak/Documents/Research/Walk-IL/dataset/trc/00562_00009.trc
DataRate	CameraRate	NumFrames	NumMarkers	Units	OrigDataRate	OrigDataStartFrame	OrigNumFrames
100.000000	100.000000	4	53	mm	100.000000	104	416
Frame#	Time	RPSI			LPSI			L3			STRN			T10			C7			CLAV			RBAK			LBAK			LSHO			LUPA			LAEL			LAOL			LWTS			LWPS			LFRA			LHPS			LHTS			RSHO			RUPA			RAEL			RAOL			RWTS			RWPS			RFRA			RIFD			RHTS			RHPS			RBHD			LFHD			RFHD			LBHD			LHIP			RHIP			RASI			LASI			LKNE			LTHI			LANK			LTIP			LTOE			LMT1			LMT5			LHEE			RKNE			RTHI			RANK			RTIP			RTOE			RMT1			RMT5			RHEE			LIFD			
		X1	Y1	Z1	X2	Y2	Z2	X3	Y3	Z3	X4	Y4	Z4	X5	Y5	Z5	X6	Y6	Z6	X7	Y7	Z7	X8	Y8	Z8	X9	Y9	Z9	X10	Y10	Z10	X11	Y11	Z11	X12	Y12	Z12	X13	Y13	Z13	X14	Y14	Z14	X15	Y15	Z15	X16	Y16	Z16	X17	Y17	Z17	X18	Y18	Z18	X19	Y19	Z19	X20	Y20	Z20	X21	Y21	Z21	X22	Y22	Z22	X23	Y23	Z23	X24	Y24	Z24	X25	Y25	Z25	X26	Y26	Z26	X27	Y27	Z27	X28	Y28	Z28	X29	Y29	Z29	X30	Y30	Z30	X31	Y31	Z31	X32	Y32	Z32	X33	Y33	Z33	X34	Y34	Z34	X35	Y35	Z35	X36	Y36	Z36	X37	Y37	Z37	X38	Y38	Z38	X39	Y39	Z39	X40	Y40	Z40	X41	Y41	Z41	X42	Y42	Z42	X43	Y43	Z43	X44	Y44	Z44	X45	Y45	Z45	X46	Y46	Z46	X47	Y47	Z47	X48	Y48	Z48	X49	Y49	Z49	X50	Y50	Z50	X51	Y51	Z51	X52	Y52	Z52	X53	Y53	Z53	

105	1.04	-1474.3212890625	1019.47265625	-419.3254089355469	-1430.143798828125	1022.912963867188	-545.556640625	-1441.5390625	1109.688232421875	-482.0404052734375	-1207.632568359375	1289.186889648438	-422.2231750488281	-1443.643188476562	1236.5986328125	-484.1246948242188	-1390.420654296875	1508.262573242188	-455.2121276855469	-1221.421020507812	1401.083862304688	-425.8988037109375	-1484.152587890625	1386.68994140625	-391.730712890625	-1405.554809570312	1457.54833984375	-550.8577270507812	-1292.369995117188	1481.886840820312	-608.0546875	-1298.992919921875	1360.502685546875	-694.7457275390625	-1300.23828125	1141.787109375	-727.9615478515625	-1394.216796875	1139.968017578125	-690.9496459960938	-1234.718139648438	892.918212890625	-673.0582275390625	-1265.836181640625	876.27685546875	-753.2482299804688	-1282.51416015625	1054.7998046875	-734.9735107421875	-1261.895385742188	815.388427734375	-747.8150024414062	-1223.182739257812	814.041015625	-692.8825073242188	-1372.540893554688	1469.87548828125	-292.5541381835938	-1412.220947265625	1408.22216796875	-232.2020263671875	-1445.896728515625	1120.401245117188	-192.5547943115234	-1493.84130859375	1105.489501953125	-231.4107818603516	-1308.650634765625	898.9497680664062	-203.2277984619141	-1369.371459960938	879.7376708984375	-149.9366302490234	-1439.376342773438	1064.317504882812	-183.4242858886719	-1306.916748046875	726.1597900390625	-197.7842407226562	-1287.12841796875	806.6417846679688	-180.5360107421875	-1353.740844726562	806.5403442382812	-144.0894470214844	-1318.523803710938	1686.815551757812	-379.79638671875	-1126.57958984375	1691.643310546875	-460.7841796875	-1187.33154296875	1694.185302734375	-329.7735900878906	-1242.877075195312	1681.489013671875	-526.899169921875	-1273.76513671875	936.5464477539062	-631.7589111328125	-1399.776123046875	939.238037109375	-266.8164367675781	-1296.8330078125	966.3667602539062	-295.4979553222656	-1212.223999023438	959.2378540039062	-558.5427856445312	-1274.33056640625	492.4190979003906	-559.3870849609375	-1263.150146484375	657.4627685546875	-597.6707153320312	-1383.921508789062	28.22024917602539	-575.182373046875	-1349.813110351562	247.8986968994141	-579.590576171875	-1203.194458007812	39.24256134033203	-455.2180786132812	-1283.434448242188	39.6887092590332	-442.9688110351562	-1262.654541015625	33.37680053710938	-548.4351196289062	-1466.912719726562	24.47728729248047	-545.3606567382812	-1363.213012695312	494.3751525878906	-303.2952270507812	-1365.729125976562	783.8641967773438	-257.1213684082031	-1480.233642578125	30.67503929138184	-346.4408264160156	-1369.298461914062	349.9154968261719	-317.7405090332031	-1258.086181640625	44.77162170410156	-322.8171997070312	-1304.392700195312	37.33439254760742	-380.56201171875	-1357.257934570312	40.92003631591797	-290.6830139160156	-1515.120483398438	16.3142147064209	-416.0687255859375	-1248.661254882812	726.8626708984375	-688.872802734375	
106	1.05	-1473.495971679688	1019.193420410156	-419.4471740722656	-1429.5380859375	1022.409301757812	-545.7427368164062	-1440.867065429688	1109.619262695312	-482.3247680664062	-1206.183715820312	1288.82421875	-422.9251708984375	-1442.71435546875	1236.545166015625	-484.3356323242188	-1388.839599609375	1508.046630859375	-455.3587341308594	-1219.981811523438	1400.67431640625	-426.4280395507812	-1482.5380859375	1386.524291992188	-391.7129821777344	-1404.2314453125	1457.512573242188	-551.0514526367188	-1291.10693359375	1481.768676757812	-608.435546875	-1297.683349609375	1360.354125976562	-695.080810546875	-1298.376953125	1141.51806640625	-728.039794921875	-1392.363159179688	1139.480590820312	-691.1716918945312	-1231.966064453125	893.021728515625	-672.392333984375	-1263.067504882812	876.1315307617188	-752.671875	-1280.328125	1054.586791992188	-734.8223876953125	-1258.948486328125	815.26953125	-747.0457153320312	-1219.716918945312	814.45361328125	-692.2440185546875	-1370.677001953125	1469.5107421875	-292.7554321289062	-1410.275756835938	1407.854125976562	-232.4245147705078	-1444.100219726562	1120.12255859375	-192.8005828857422	-1492.178344726562	1105.169555664062	-231.4844055175781	-1306.424560546875	898.994140625	-203.9087066650391	-1366.937744140625	879.6236572265625	-150.5727386474609	-1437.438842773438	1064.058959960938	-183.7702941894531	-1304.382690429688	726.1727294921875	-198.6150207519531	-1284.686645507812	806.6780395507812	-181.3486022949219	-1351.1826171875	806.4854125976562	-144.7534637451172	-1316.634765625	1686.384155273438	-379.8785400390625	-1124.830932617188	1691.035278320312	-461.1709594726562	-1185.360717773438	1693.611450195312	-330.0414733886719	-1241.197021484375	1681.039428710938	-527.0919189453125	-1273.33935546875	936.3312377929688	-632.4918212890625	-1398.568359375	939.1199340820312	-267.1241455078125	-1295.635620117188	966.2628173828125	-295.9583740234375	-1212.050415039062	958.885986328125	-559.2160034179688	-1270.817016601562	492.2040710449219	-557.8292236328125	-1260.831787109375	657.373291015625	-596.2388916015625	-1383.97705078125	28.20357894897461	-575.2889404296875	-1347.7314453125	247.7203826904297	-578.91015625	-1203.420532226562	40.15206909179688	-455.3614196777344	-1283.62841796875	40.05786514282227	-443.0996704101562	-1262.982666015625	33.6070442199707	-548.3685302734375	-1466.989013671875	24.34439086914062	-545.4738159179688	-1361.655151367188	494.17919921875	-303.4768371582031	-1364.428466796875	783.77197265625	-257.4125366210938	-1480.384643554688	30.65849494934082	-346.594482421875	-1368.048828125	349.6278686523438	-317.9343872070312	-1258.338623046875	45.96493148803711	-323.642578125	-1304.717041015625	37.76837539672852	-381.1756286621094	-1357.411499023438	41.68770980834961	-291.2799987792969	-1515.267822265625	16.04396820068359	-416.0218811035156	-1246.069091796875	726.5411376953125	-687.5696411132812	
107	1.06	-1472.618286132812	1018.901184082031	-419.4861450195312	-1428.87158203125	1021.780944824219	-545.833984375	-1440.183959960938	1109.522827148438	-482.5851440429688	-1204.632934570312	1288.418579101562	-423.7106018066406	-1441.727661132812	1236.451293945312	-484.5377197265625	-1387.161499023438	1507.776489257812	-455.4910278320312	-1218.458740234375	1400.20458984375	-427.0427551269531	-1480.794677734375	1386.293212890625	-391.6803588867188	-1402.857055664062	1457.45947265625	-551.2755737304688	-1289.806884765625	1481.653198242188	-608.85986328125	-1296.313720703125	1360.209228515625	-695.4579467773438	-1296.348022460938	1141.222778320312	-728.0996704101562	-1390.374633789062	1138.948120117188	-691.4494018554688	-1229.136352539062	893.01708984375	-671.5347900390625	-1260.05126953125	875.9426879882812	-751.9639282226562	-1277.948608398438	1054.3291015625	-734.6102294921875	-1255.794921875	815.1336669921875	-746.1241455078125	-1215.774536132812	815.0055541992188	-691.5209350585938	-1368.662353515625	1469.051635742188	-292.9687194824219	-1408.1826171875	1407.3671875	-232.6731414794922	-1442.275512695312	1119.785278320312	-193.0546417236328	-1490.477172851562	1104.80029296875	-231.5688629150391	-1304.093627929688	899.0281372070312	-204.6190490722656	-1364.401245117188	879.48046875	-151.2382202148438	-1435.463989257812	1063.73681640625	-184.1320343017578	-1301.677124023438	726.182861328125	-199.5013122558594	-1282.090698242188	806.7276611328125	-182.2111206054688	-1348.494262695312	806.4054565429688	-145.4476013183594	-1314.666748046875	1685.857177734375	-379.9363708496094	-1123.041748046875	1690.343139648438	-461.5736389160156	-1183.303588867188	1692.971923828125	-330.3128967285156	-1239.467895507812	1680.4970703125	-527.2758178710938	-1272.826904296875	935.9938354492188	-633.112060546875	-1397.279541015625	939.016357421875	-267.3661804199219	-1294.336059570312	966.2098999023438	-296.3206481933594	-1211.762451171875	958.4960327148438	-559.8146362304688	-1267.1025390625	491.8731384277344	-556.0790405273438	-1258.21044921875	657.1821899414062	-594.6378784179688	-1384.02734375	28.2090015411377	-575.3800659179688	-1345.511474609375	247.4819183349609	-578.1558227539062	-1203.671020507812	41.14662933349609	-455.3728332519531	-1283.869750976562	40.47454452514648	-443.1119384765625	-1263.332275390625	33.91663360595703	-548.1944580078125	-1467.063110351562	24.23540115356445	-545.5982055664062	-1360.126098632812	493.9838256835938	-303.60302734375	-1363.06494140625	783.68603515625	-257.5939025878906	-1480.538452148438	30.65719413757324	-346.7811584472656	-1366.841674804688	349.3169860839844	-318.1044616699219	-1258.590698242188	47.20998764038086	-324.5382690429688	-1305.06103515625	38.28376388549805	-381.8314208984375	-1357.5634765625	42.48089218139648	-291.87451171875	-1515.432861328125	15.73964786529541	-415.9866943359375	-1243.222778320312	726.1857299804688	-686.1130981445312	
108	1.07	-1471.679321289062	1018.591369628906	-419.4215393066406	-1428.156372070312	1021.037292480469	-545.8147583007812	-1439.5009765625	1109.410034179688	-482.8202514648438	-1202.980712890625	1287.965209960938	-424.6134033203125	-1440.681640625	1236.3125	-484.7379455566406	-1385.38037109375	1507.451416015625	-455.6216125488281	-1216.840209960938	1399.67236328125	-427.7759399414062	-1478.915771484375	1385.998168945312	-391.6400756835938	-1401.441528320312	1457.39404296875	-551.5402221679688	-1288.471313476562	1481.546752929688	-609.340087890625	-1294.88671875	1360.077514648438	-695.8931274414062	-1294.145874023438	1140.909301757812	-728.1541137695312	-1388.250244140625	1138.381713867188	-691.8134765625	-1226.271606445312	892.8939208984375	-670.4794311523438	-1256.761962890625	875.7178955078125	-751.1165771484375	-1275.363037109375	1054.032592773438	-734.34033203125	-1252.407592773438	814.9881591796875	-745.0598754882812	-1211.335083007812	815.7048950195312	-690.68896484375	-1366.472778320312	1468.476928710938	-293.2043762207031	-1405.914916992188	1406.740234375	-232.9635009765625	-1440.432006835938	1119.378662109375	-193.3184509277344	-1488.75390625	1104.370971679688	-231.6679382324219	-1301.657348632812	899.0457763671875	-205.3803558349609	-1361.771850585938	879.3021240234375	-151.9329223632812	-1433.460693359375	1063.338745117188	-184.5084838867188	-1298.805908203125	726.1890258789062	-200.4168548583984	-1279.346923828125	806.7877807617188	-183.1160430908203	-1345.67724609375	806.2977294921875	-146.1696472167969	-1312.608276367188	1685.219970703125	-379.9669494628906	-1121.1953125	1689.569091796875	-461.9832458496094	-1181.152465820312	1692.247314453125	-330.5789184570312	-1237.677001953125	1679.866455078125	-527.447509765625	-1272.191040039062	935.5060424804688	-633.5703735351562	-1395.915893554688	938.9287719726562	-267.5227661132812	-1292.946166992188	966.2102661132812	-296.5556640625	-1211.326904296875	958.069091796875	-560.312255859375	-1263.291870117188	491.42822265625	-554.1749877929688	-1255.337524414062	656.8828125	-592.9290771484375	-1384.063232421875	28.23369026184082	-575.443603515625	-1343.226806640625	247.1862182617188	-577.3298950195312	-1203.95947265625	42.19170379638672	-455.216064453125	-1284.171630859375	40.93398284912109	-442.9859313964844	-1263.687133789062	34.32012557983398	-547.8914794921875	-1467.140747070312	24.13860321044922	-545.7452392578125	-1358.614868164062	493.7859191894531	-303.6446228027344	-1361.645263671875	783.6067504882812	-257.6457824707031	-1480.69580078125	30.68308639526367	-346.9974975585938	-1365.670166015625	348.9771118164062	-318.2276916503906	-1258.849975585938	48.48581314086914	-325.4799194335938	-1305.4208984375	38.87993621826172	-382.5299377441406	-1357.71875	43.28222274780273	-292.46044921875	-1515.62158203125	15.40237045288086	-415.97119140625	-1240.084594726562	725.8296508789062	-684.50341796875	
